<?xml version="1.0" standalone="no"?>
<!DOCTYPE svg PUBLIC "-//W3C//DTD SVG 20010904//EN"
 "http://www.w3.org/TR/2001/REC-SVG-20010904/DTD/svg10.dtd">
<svg version="1.0" xmlns="http://www.w3.org/2000/svg"
 width="877.000000pt" height="943.000000pt" viewBox="0 0 877.000000 943.000000"
 preserveAspectRatio="xMidYMid meet">

<g transform="translate(0.000000,943.000000) scale(0.100000,-0.100000)"
fill="#000000" stroke="none">
<path d="M4235 9421 c-323 -38 -606 -160 -858 -371 -152 -128 -306 -318 -442
-550 -108 -184 -993 -1928 -1391 -2740 -589 -1206 -1196 -2502 -1362 -2910
-219 -541 -237 -1054 -53 -1544 214 -569 677 -1013 1256 -1204 568 -188 1207
-105 1805 234 343 194 619 414 983 783 l198 200 207 -207 c327 -328 574 -530
873 -715 622 -384 1318 -495 1895 -301 320 107 573 262 805 493 305 305 478
642 571 1114 28 147 31 180 32 357 1 363 -55 555 -347 1200 -63 140 -129 282
-145 315 -16 33 -104 220 -195 415 -545 1172 -1200 2506 -1860 3790 -397 771
-450 862 -630 1074 -255 302 -574 491 -927 550 -114 20 -319 28 -415 17z m403
-640 c267 -67 468 -220 647 -494 215 -330 1561 -3047 2325 -4692 145 -313 214
-467 386 -851 158 -355 205 -668 149 -994 -75 -436 -343 -802 -736 -1010 -105
-55 -261 -110 -389 -137 -121 -25 -408 -25 -545 1 -423 79 -829 308 -1281 724
-126 116 -414 411 -414 424 0 5 47 68 104 141 615 785 973 1503 1073 2157 25
163 25 519 -1 645 -42 210 -133 427 -251 596 -79 113 -268 300 -380 376 -216
146 -434 229 -705 269 -154 22 -430 15 -575 -16 -565 -120 -1009 -501 -1180
-1013 -67 -201 -79 -285 -80 -542 0 -248 4 -286 60 -520 151 -634 492 -1263
1127 -2080 17 -22 16 -24 -117 -166 -524 -564 -1046 -901 -1546 -1000 -160
-32 -406 -33 -564 -1 -302 60 -521 177 -735 391 -165 165 -260 316 -334 529
-57 165 -70 251 -70 462 0 367 35 469 522 1510 504 1078 780 1652 1263 2620
497 997 1025 2022 1115 2161 194 304 418 466 721 524 105 20 300 13 411 -14z
m-63 -3416 c423 -69 727 -374 790 -793 76 -500 -133 -1111 -636 -1861 -146
-218 -326 -462 -346 -468 -26 -9 -391 508 -553 783 -532 907 -593 1660 -168
2070 153 147 333 238 547 274 78 13 272 11 366 -5z"/>
</g>
</svg>
