<svg width="10" height="11" viewBox="0 0 10 11" fill="none" xmlns="http://www.w3.org/2000/svg">
<path d="M4.4294 1.15344C4.6094 0.491415 5.3912 0.491415 5.5706 1.15344L6.2126 3.51977C6.25182 3.66388 6.32807 3.78945 6.43044 3.87853C6.53281 3.96761 6.65607 4.01564 6.7826 4.01575H8.8598C9.4412 4.01575 9.68239 4.90708 9.21259 5.3168L7.5326 6.77886C7.43001 6.86802 7.35363 6.99379 7.3144 7.13816C7.27516 7.28253 7.27509 7.43808 7.3142 7.5825L7.9562 9.94882C8.1362 10.6109 7.5032 11.1622 7.0322 10.7525L5.3522 9.29039C5.24972 9.20126 5.12633 9.15326 4.9997 9.15326C4.87306 9.15326 4.74967 9.20126 4.6472 9.29039L2.9672 10.7525C2.4968 11.1622 1.8644 10.6109 2.0438 9.94882L2.6858 7.5825C2.7249 7.43808 2.72483 7.28253 2.6856 7.13816C2.64636 6.99379 2.56998 6.86802 2.4674 6.77886L0.787997 5.31752C0.318197 4.9078 0.559997 4.01647 1.1408 4.01647H3.2174C3.34402 4.01651 3.46742 3.96855 3.56991 3.87946C3.6724 3.79037 3.74874 3.66472 3.788 3.52049L4.43 1.15416L4.4294 1.15344Z" fill="#101010"/>
</svg>
