<svg width="12" height="12" viewBox="0 0 12 12" fill="none" xmlns="http://www.w3.org/2000/svg">
<path d="M5.4294 1.75619C5.6094 1.20359 6.3912 1.20359 6.5706 1.75619L7.2126 3.73139C7.25182 3.85168 7.32807 3.95649 7.43044 4.03085C7.53281 4.1052 7.65607 4.14529 7.7826 4.14539H9.8598C10.4412 4.14539 10.6824 4.88939 10.2126 5.23139L8.5326 6.45179C8.43001 6.52621 8.35363 6.63119 8.3144 6.7517C8.27516 6.8722 8.27509 7.00204 8.3142 7.12259L8.9562 9.09779C9.1362 9.65039 8.5032 10.1106 8.0322 9.76859L6.3522 8.54819C6.24972 8.47379 6.12633 8.43372 5.9997 8.43372C5.87306 8.43372 5.74967 8.47379 5.6472 8.54819L3.9672 9.76859C3.4968 10.1106 2.8644 9.65039 3.0438 9.09779L3.6858 7.12259C3.7249 7.00204 3.72483 6.8722 3.6856 6.7517C3.64636 6.63119 3.56998 6.52621 3.4674 6.45179L1.788 5.23199C1.3182 4.88999 1.56 4.14599 2.1408 4.14599H4.2174C4.34402 4.14602 4.46742 4.10599 4.56991 4.03163C4.6724 3.95726 4.74874 3.85238 4.788 3.73199L5.43 1.75679L5.4294 1.75619Z" fill="white"/>
</svg>
