<svg width="60" height="60" viewBox="0 0 60 60" fill="none" xmlns="http://www.w3.org/2000/svg">
<rect width="60" height="60" rx="8" fill="#282C8C" fill-opacity="0.6"/>
<path d="M32.6477 24.4205C32.5568 23.5038 32.1667 22.7917 31.4773 22.2841C30.7879 21.7765 29.8523 21.5227 28.6705 21.5227C27.8674 21.5227 27.1894 21.6364 26.6364 21.8636C26.0833 22.0833 25.6591 22.3902 25.3636 22.7841C25.0758 23.178 24.9318 23.625 24.9318 24.125C24.9167 24.5417 25.0038 24.9053 25.1932 25.2159C25.3902 25.5265 25.6591 25.7955 26 26.0227C26.3409 26.2424 26.7348 26.4356 27.1818 26.6023C27.6288 26.7614 28.1061 26.8977 28.6136 27.0114L30.7045 27.5114C31.7197 27.7386 32.6515 28.0417 33.5 28.4205C34.3485 28.7992 35.0833 29.2652 35.7045 29.8182C36.3258 30.3712 36.8068 31.0227 37.1477 31.7727C37.4962 32.5227 37.6742 33.3826 37.6818 34.3523C37.6742 35.7765 37.3106 37.0114 36.5909 38.0568C35.8788 39.0947 34.8485 39.9015 33.5 40.4773C32.1591 41.0455 30.5417 41.3295 28.6477 41.3295C26.7689 41.3295 25.1326 41.0417 23.7386 40.4659C22.3523 39.8902 21.2689 39.0379 20.4886 37.9091C19.7159 36.7727 19.3106 35.3674 19.2727 33.6932H24.0341C24.0871 34.4735 24.3106 35.125 24.7045 35.6477C25.1061 36.1629 25.6402 36.553 26.3068 36.8182C26.9811 37.0758 27.7424 37.2045 28.5909 37.2045C29.4242 37.2045 30.1477 37.0833 30.7614 36.8409C31.3826 36.5985 31.8636 36.2614 32.2045 35.8295C32.5455 35.3977 32.7159 34.9015 32.7159 34.3409C32.7159 33.8182 32.5606 33.3788 32.25 33.0227C31.947 32.6667 31.5 32.3636 30.9091 32.1136C30.3258 31.8636 29.6098 31.6364 28.7614 31.4318L26.2273 30.7955C24.2652 30.3182 22.7159 29.572 21.5795 28.5568C20.4432 27.5417 19.8788 26.1742 19.8864 24.4545C19.8788 23.0455 20.2538 21.8144 21.0114 20.7614C21.7765 19.7083 22.8258 18.8864 24.1591 18.2955C25.4924 17.7045 27.0076 17.4091 28.7045 17.4091C30.4318 17.4091 31.9394 17.7045 33.2273 18.2955C34.5227 18.8864 35.5303 19.7083 36.25 20.7614C36.9697 21.8144 37.3409 23.0341 37.3636 24.4205H32.6477Z" fill="white"/>
</svg>
