<svg width="60" height="60" viewBox="0 0 60 60" fill="none" xmlns="http://www.w3.org/2000/svg">
<rect width="60" height="60" rx="8" fill="#4A4DC7"/>
<path d="M32.6477 24.4205H37.3636C37.2955 20.2727 33.8864 17.4091 28.7045 17.4091C23.6023 17.4091 19.8636 20.2273 19.8864 24.4545C19.875 27.8864 22.2955 29.8523 26.2273 30.7955L28.7614 31.4318C31.2955 32.0455 32.7045 32.7727 32.7159 34.3409C32.7045 36.0455 31.0909 37.2045 28.5909 37.2045C26.0341 37.2045 24.1932 36.0227 24.0341 33.6932H19.2727C19.3977 38.7273 23 41.3295 28.6477 41.3295C34.3295 41.3295 37.6705 38.6136 37.6818 34.3523C37.6705 30.4773 34.75 28.4205 30.7045 27.5114L28.6136 27.0114C26.5909 26.5455 24.8977 25.7955 24.9318 24.125C24.9318 22.625 26.2614 21.5227 28.6705 21.5227C31.0227 21.5227 32.4659 22.5909 32.6477 24.4205Z" fill="white"/>
</svg>
